# xmcd CD database file
#
# Track frame offsets:
#	150
#	13755
#	25072
#	40082
#	55039
#	77942
#	93415
#	107120
#	120575
#	133732
#	145500
#	159045
#	172384
#
# Disc length: 2393 seconds
#
# Revision: 0
# Processed by: cddbd v1.4PL0 Copyright (c) Steve Scherf et al.
# Submitted via: CDex 1.40Release
#
DISCID=a209570d
DTITLE=Billy Walker - Law and Order
DYEAR=1900
DGENRE=Country
TTITLE0=Cross The Brazos At Waco
TTITLE1=Mexicali Moon
TTITLE2=El Diablo
TTITLE3=Buenos Noches Nacogdoches
TTITLE4=El Paso
TTITLE5=The Cowboy
TTITLE6=Wild Texas Rose
TTITLE7=Sweet Spanish Memories
TTITLE8=That Ole El Paso Story Again
TTITLE9=Carlena and Jose Gomez
TTITLE10=Goodbye Rosendra
TTITLE11=The Lonely Rider
TTITLE12=The Cattle Call
EXTD=ID3G: 2
EXTT0=
EXTT1=
EXTT2=
EXTT3=
EXTT4=
EXTT5=
EXTT6=
EXTT7=
EXTT8=
EXTT9=
EXTT10=
EXTT11=
EXTT12=
PLAYORDER=
